<?xml version="1.0"?>
<svg xmlns="http://www.w3.org/2000/svg" id="Layer_1" data-name="Layer 1" viewBox="0 0 512 512" width="512" height="512"><title>Remove Ad</title><path d="M357.82,236.25a46.539,46.539,0,0,1,0,93.05Z" style="fill:#6fe3ff"/><polygon points="357.82 329.3 357.82 410.77 319.15 392.73 319.42 392.15 319.42 172.7 357.82 154.78 357.82 236.25 357.82 329.3" style="fill:#e48e66"/><path d="M319.42,172.7V392.15l-.27.58-76.83-35.85a293.686,293.686,0,0,0-69.52-22.42V276.52l-.36-.64a105.243,105.243,0,0,0,48.64-58.78l.7.23q10.41-3.93,20.54-8.65Z" style="fill:#f8ec7d"/><path d="M226.37,184.12a105,105,0,1,1-105-105A104.855,104.855,0,0,1,226.37,184.12Z" style="fill:#e48e66"/><path d="M172.8,334.46v51.88a46.536,46.536,0,0,1-46.54,46.54V329.43A293.547,293.547,0,0,1,172.8,334.46Z" style="fill:#f8ec7d"/><path d="M126.26,329.43q-4.065-.1-8.14-.11a23.285,23.285,0,0,1-23.28-23.27V286.5l.19-.72a105.252,105.252,0,0,0,77.41-9.9l.36.64v57.94A293.547,293.547,0,0,0,126.26,329.43Z" style="fill:#6fe3ff"/><path d="M182.78,184.12a6,6,0,0,0-6-6H65.95a6,6,0,1,0,0,12H176.78A6,6,0,0,0,182.78,184.12Z" style="fill:#63316d"/><path d="M363.82,230.732V154.78a6,6,0,0,0-8.537-5.437l-115.5,53.9c-3.245,1.517-6.564,2.99-9.933,4.408A111,111,0,1,0,88.84,290.266V306.05a29.287,29.287,0,0,0,29.28,29.27q1.06,0,2.14.009V432.88a6,6,0,0,0,6,6,52.536,52.536,0,0,0,52.54-52.54V341.806a287.8,287.8,0,0,1,60.983,20.511l115.5,53.89a6,6,0,0,0,8.537-5.437V334.819a52.533,52.533,0,0,0,0-104.087ZM22.37,184.12a98.92,98.92,0,1,1,74.163,95.852h0A98.939,98.939,0,0,1,22.37,184.12ZM105.9,318.252a17.118,17.118,0,0,1-5.057-12.2V293.211a111.168,111.168,0,0,0,65.96-7.805v41.907a301.211,301.211,0,0,0-40.387-3.881c-2.928-.076-5.641-.112-8.293-.112A17.142,17.142,0,0,1,105.9,318.252Zm49.03,96.756a40.237,40.237,0,0,1-22.667,11.434V335.671a288.832,288.832,0,0,1,34.54,3.807V386.34A40.309,40.309,0,0,1,154.927,415.008ZM178.8,329.535V279.1a110.706,110.706,0,0,0,46.8-56.815c6.572-2.526,13.046-5.263,19.257-8.166l68.563-32V383.433l-68.562-31.99A299.853,299.853,0,0,0,178.8,329.535ZM351.82,401.35l-26.4-12.318V176.521l26.4-12.32Zm12-78.681V242.856A40.27,40.27,0,0,1,397.2,282.78,40.839,40.839,0,0,1,363.82,322.669Z" style="fill:#63316d"/><path d="M464.92,282.78a74.61,74.61,0,0,0-45.461-68.76,6,6,0,1,0-4.7,11.041,62.724,62.724,0,0,1,0,115.428,6,6,0,1,0,4.7,11.041A74.6,74.6,0,0,0,464.92,282.78Z" style="fill:#63316d"/><path d="M434.27,180.89a6,6,0,1,0-4.7,11.041,98.733,98.733,0,0,1,0,181.688,6,6,0,1,0,4.7,11.041,110.733,110.733,0,0,0,0-203.77Z" style="fill:#63316d"/></svg>
